<svg width="342" height="342" viewBox="0 0 342 342" fill="none" xmlns="http://www.w3.org/2000/svg">
<circle cx="171" cy="171" r="171" fill="#219653"/>
<path d="M276.314 89.4492C270.065 83.2041 259.937 83.2057 253.69 89.4528L147.492 195.65C141.251 201.892 131.133 201.9 124.882 195.667L87.7065 158.601C85.6704 156.571 83.1248 155.127 80.3375 154.422L79.5885 154.232C74.1234 152.848 68.2956 154.48 64.3092 158.466V158.466C60.6274 162.148 58.9331 167.425 59.8251 172.555L60.0998 174.135C60.6648 177.384 62.2197 180.379 64.552 182.71L125.059 243.191C131.307 249.437 141.436 249.436 147.684 243.189L277.555 113.317C283.805 107.068 283.803 96.9341 277.551 90.6863L276.314 89.4492Z" fill="white"/>
</svg>
